<svg width="1080" height="1080" viewBox="0 0 1080 1080" fill="none" xmlns="http://www.w3.org/2000/svg">
<g clip-path="url(#clip0_0_1)">
<path d="M909.539 1075C959.134 1075 995.866 1062.97 1019.78 1038.92C1043.67 1014.87 1059.67 974.262 1067.77 917.051C1075.91 859.858 1080 781.953 1080 683.336C1080 550.063 1079.54 460.152 1078.65 413.619L1080 237.3C1080 204.95 1063.07 173.984 1029.22 144.419C995.423 114.873 954.179 100.081 905.491 100.081C817.983 100.081 761.177 139.107 735.03 217.16C720.628 261.332 712.088 341.8 709.389 458.547C709.389 479.849 702.599 491.672 689.062 494.032C682.757 494.032 675.082 488.923 666.036 478.687L629.514 434.866C485.221 255.854 394.15 152.903 356.322 126.049C328.361 108.749 296.795 100.081 261.602 100.081C239.04 100.081 217.406 105.005 196.657 114.836C175.908 124.684 158.744 141.062 145.206 163.969C131.711 186.839 124.5 218.008 123.614 257.44C122.708 257.44 122.033 286.249 121.59 343.829C121.126 401.373 120.683 469.005 120.24 546.707C119.777 624.427 119.566 694.033 119.566 755.56C119.566 842.318 120.008 885.697 120.915 885.697C120.915 908.567 124.964 934.978 133.061 964.93C152.903 1038.32 207.031 1075 295.425 1075C351.303 1075 393.012 1059.82 420.508 1029.48C448.047 999.087 461.837 964.561 461.837 925.903C461.837 891.968 464.072 841.101 468.584 773.266V767.364C468.584 763.435 470.145 758.714 473.308 753.199C476.45 747.648 480.266 744.863 484.779 744.863C488.363 744.863 491.99 746.449 495.659 749.584C529.903 781.159 561.448 815.888 590.294 853.753L630.864 902.222C658.866 936.951 697.433 973.451 746.585 1011.7C795.716 1049.95 850.034 1071.05 909.539 1075Z" fill="url(#paint0_linear_0_1)" fill-opacity="0.5"/>
<g filter="url(#filter0_d_0_1)">
<path d="M849.756 1022.71C899.351 1022.71 936.083 1010.68 959.995 986.635C983.886 962.584 999.89 921.972 1007.99 864.761C1016.13 807.567 1020.22 729.662 1020.22 631.046C1020.22 497.773 1019.75 407.862 1018.87 361.329L1020.22 185.01C1020.22 152.66 1003.28 121.694 969.442 92.1288C935.64 62.5825 894.396 47.7908 845.708 47.7908C758.2 47.7908 701.394 86.8171 675.247 164.87C660.845 209.042 652.305 289.51 649.606 406.257C649.606 427.559 642.816 439.381 629.279 441.742C622.974 441.742 615.299 436.633 606.253 426.397L569.732 382.576C425.439 203.564 334.367 100.613 296.539 73.7592C268.578 56.4592 237.012 47.7908 201.819 47.7908C179.257 47.7908 157.623 52.7152 136.874 62.5456C116.125 72.3944 98.961 88.7721 85.4237 111.679C71.9285 134.549 64.717 165.718 63.8314 205.15C62.9247 205.15 62.2499 233.959 61.8071 291.539C61.3432 349.083 60.9004 416.715 60.4576 494.417C59.9937 572.137 59.7828 641.743 59.7828 703.27C59.7828 790.028 60.2256 833.407 61.1324 833.407C61.1324 856.277 65.1809 882.688 73.278 912.64C93.1201 986.026 147.248 1022.71 235.642 1022.71C291.52 1022.71 333.229 1007.53 360.725 977.192C388.264 946.797 402.054 912.271 402.054 873.613C402.054 839.677 404.289 788.811 408.802 720.976V715.074C408.802 711.145 410.362 706.424 413.525 700.909C416.667 695.358 420.483 692.573 424.996 692.573C428.58 692.573 432.207 694.159 435.876 697.294C470.12 728.869 501.665 763.598 530.511 801.463L571.081 849.932C599.084 884.661 637.65 921.16 686.802 959.412C735.933 997.664 790.251 1018.76 849.756 1022.71Z" fill="url(#paint1_linear_0_1)" fill-opacity="0.76"/>
</g>
<path d="M789.973 970.42C839.568 970.42 876.3 958.395 900.212 934.344C924.103 910.294 940.107 869.682 948.204 812.47C956.344 755.277 960.434 677.372 960.434 578.755C960.434 445.483 959.97 355.571 959.085 309.039L960.434 132.72C960.434 100.37 943.502 69.4034 909.659 39.8386C875.858 10.2922 834.613 -4.49939 785.925 -4.49939C698.417 -4.49939 641.611 34.5269 615.464 112.579C601.062 156.751 592.522 237.22 589.823 353.967C589.823 375.269 583.033 387.091 569.496 389.452C563.191 389.452 555.516 384.343 546.47 374.107L509.949 330.286C365.656 151.274 274.585 48.3226 236.756 21.4689C208.796 4.16902 177.23 -4.49939 142.037 -4.49939C119.474 -4.49939 97.84 0.425004 77.0912 10.2553C56.3423 20.1041 39.1782 36.4819 25.6408 59.3886C12.1457 82.2585 4.93417 113.428 4.04855 152.86C3.14184 152.86 2.46708 181.668 2.02428 239.249C1.56038 296.792 1.11757 364.424 0.674758 442.126C0.210865 519.847 0 589.452 0 650.98C0 737.738 0.442809 781.116 1.34952 781.116C1.34952 803.986 5.39807 830.397 13.4952 860.349C33.3373 933.736 87.4656 970.42 175.859 970.42C231.737 970.42 273.446 955.241 300.942 924.901C328.481 894.507 342.271 859.981 342.271 821.323C342.271 787.387 344.506 736.52 349.019 668.685V662.783C349.019 658.855 350.579 654.134 353.742 648.619C356.884 643.067 360.701 640.283 365.213 640.283C368.798 640.283 372.424 641.869 376.093 645.004C410.337 676.579 441.882 711.308 470.728 749.172L511.298 797.642C539.301 832.371 577.867 868.87 627.019 907.122C676.15 945.374 730.468 966.473 789.973 970.42Z" fill="url(#paint2_linear_0_1)"/>
<path d="M894.326 227.037C894.643 227.201 894.938 227.384 895.254 227.549C894.959 227.403 894.643 227.22 894.326 227.037Z" fill="#F9FCFC"/>
<path d="M788.178 259.755V255.606C789.401 255.2 790.603 254.72 791.721 254.13C789.465 255.292 788.178 257.468 788.178 259.755Z" fill="#F9FCFC"/>
<path d="M770.023 254.13C771.141 254.72 772.343 255.2 773.587 255.606V259.755C773.587 257.468 772.279 255.292 770.023 254.13Z" fill="#F9FCFC"/>
<path d="M666.49 227.549C666.806 227.384 667.123 227.201 667.418 227.037C667.101 227.22 666.806 227.403 666.49 227.549Z" fill="#F9FCFC"/>
<mask id="mask0_0_1" style="mask-type:luminance" maskUnits="userSpaceOnUse" x="645" y="121" width="273" height="383">
<path d="M645.868 121.909H917.121V502.655H645.868V121.909Z" fill="white"/>
<path d="M645.868 121.659H645.618V121.909V502.655V502.905H645.868H917.121H917.371V502.655V121.909V121.659H917.121H645.868Z" stroke="white" stroke-width="0.5"/>
</mask>
<g mask="url(#mask0_0_1)">
<path d="M644.729 238.01C644.729 238.01 647.955 236.866 653.227 234.45C654.028 234.063 654.871 233.675 655.757 233.251C656.242 233.03 656.727 232.772 657.233 232.532C658.245 232.016 659.3 231.481 660.396 230.909C660.944 230.632 661.493 230.337 662.062 230.024C663.496 229.267 664.951 228.456 666.49 227.552C666.806 227.405 667.101 227.22 667.418 227.036C668.05 226.685 668.662 226.317 669.294 225.929C669.632 225.745 669.948 225.542 670.264 225.357C671.551 224.583 672.858 223.753 674.165 222.904C674.524 222.683 674.882 222.462 675.241 222.222C675.852 221.835 676.464 221.411 677.096 220.986C678.825 219.824 680.576 218.607 682.347 217.298C682.705 217.058 683.043 216.8 683.401 216.542C683.738 216.283 684.097 216.025 684.434 215.767C686.585 214.162 688.736 212.447 690.887 210.658C691.561 210.105 692.215 209.533 692.869 208.961C694.977 207.135 697.065 205.217 699.131 203.207C699.659 202.691 700.186 202.156 700.713 201.621C701.114 201.233 701.514 200.828 701.894 200.422C703.707 198.578 705.478 196.641 707.207 194.631C707.65 194.096 708.114 193.579 708.557 193.026C709.063 192.418 709.59 191.809 710.075 191.182C710.56 190.573 711.066 189.946 711.551 189.301C712.015 188.729 712.458 188.12 712.901 187.53C712.943 187.475 712.964 187.438 713.006 187.382C713.491 186.737 713.955 186.091 714.44 185.427C716.317 182.753 718.13 179.968 719.817 177.091C720.218 176.409 720.618 175.689 721.019 174.988C721.441 174.251 721.841 173.495 722.242 172.738C722.643 172.001 723.043 171.244 723.402 170.488C723.718 169.843 724.034 169.197 724.351 168.533C724.435 168.349 724.519 168.164 724.625 167.98C724.878 167.427 725.152 166.855 725.384 166.283C725.848 165.306 726.269 164.31 726.67 163.314C726.923 162.687 727.176 162.06 727.429 161.433C727.513 161.174 727.619 160.935 727.724 160.676C727.977 159.957 728.251 159.256 728.504 158.519C728.8 157.744 729.053 156.932 729.327 156.139C729.348 156.066 729.369 155.992 729.39 155.918C729.664 155.088 729.938 154.258 730.17 153.428C730.381 152.69 730.613 151.953 730.824 151.196C730.887 150.957 730.95 150.699 731.014 150.459C731.225 149.684 731.414 148.928 731.604 148.153C731.815 147.25 732.026 146.346 732.216 145.442C732.384 144.686 732.532 143.93 732.68 143.155C732.743 142.897 732.785 142.62 732.848 142.344C732.996 141.551 733.143 140.739 733.27 139.891V139.854C733.565 137.991 733.839 136.091 734.029 134.155C734.135 133.325 734.198 132.495 734.282 131.665C734.282 131.425 734.324 131.204 734.324 130.982C734.409 130.079 734.472 129.157 734.514 128.234V128.198C734.725 124.73 737.993 122.019 741.979 122.019H819.787C823.751 122.019 827.019 124.73 827.23 128.198V128.234C827.293 129.157 827.357 130.079 827.42 130.982C827.441 131.204 827.462 131.425 827.462 131.665C827.546 132.495 827.61 133.325 827.715 134.155C827.926 136.091 828.179 137.991 828.474 139.854V139.891C828.622 140.739 828.748 141.551 828.896 142.344C828.959 142.62 829.001 142.897 829.065 143.155C829.212 143.93 829.36 144.686 829.528 145.442C829.718 146.346 829.929 147.25 830.14 148.153C830.33 148.928 830.52 149.684 830.73 150.459C830.794 150.699 830.878 150.957 830.941 151.196C831.131 151.953 831.363 152.69 831.574 153.428C831.827 154.258 832.101 155.088 832.354 155.918C832.375 155.992 832.417 156.066 832.438 156.139C832.691 156.932 832.944 157.744 833.24 158.519C833.493 159.256 833.767 159.957 834.02 160.676C834.125 160.935 834.231 161.174 834.315 161.433C834.568 162.06 834.821 162.687 835.074 163.314C835.475 164.31 835.897 165.306 836.36 166.283C836.613 166.855 836.866 167.427 837.141 167.98C837.225 168.164 837.309 168.349 837.394 168.533C837.71 169.197 838.026 169.843 838.343 170.488C838.722 171.244 839.102 172.001 839.502 172.738C839.903 173.495 840.304 174.251 840.725 174.988C841.126 175.689 841.527 176.409 841.927 177.091C843.635 179.968 845.427 182.753 847.325 185.427C847.789 186.091 848.274 186.737 848.738 187.382C848.78 187.438 848.822 187.475 848.843 187.53C849.286 188.12 849.75 188.729 850.193 189.301C850.678 189.946 851.184 190.573 851.69 191.182C852.175 191.809 852.681 192.418 853.187 193.026C853.63 193.579 854.094 194.096 854.537 194.631C856.287 196.641 858.037 198.578 859.872 200.422C860.23 200.828 860.652 201.233 861.031 201.621C861.558 202.156 862.086 202.691 862.634 203.207C864.679 205.217 866.767 207.135 868.875 208.961C869.55 209.533 870.204 210.105 870.857 210.658C873.008 212.447 875.18 214.162 877.31 215.767C877.668 216.025 878.006 216.283 878.364 216.542C878.702 216.8 879.06 217.058 879.397 217.298C881.169 218.607 882.94 219.824 884.648 220.986C885.28 221.411 885.913 221.835 886.524 222.222C886.862 222.462 887.22 222.683 887.579 222.904C888.886 223.753 890.193 224.583 891.48 225.357C891.796 225.542 892.112 225.745 892.45 225.929C893.082 226.317 893.715 226.685 894.326 227.036C894.643 227.22 894.959 227.405 895.254 227.552C896.793 228.456 898.248 229.267 899.682 230.024C900.252 230.337 900.8 230.632 901.348 230.909C902.445 231.481 903.499 232.016 904.511 232.532C905.017 232.772 905.502 233.03 905.987 233.251C906.894 233.675 907.737 234.063 908.538 234.45C913.789 236.866 917.036 238.01 917.036 238.01C914.949 240.057 912.924 242.141 910.9 244.28C910.879 244.299 910.858 244.317 910.816 244.354C909.951 245.295 909.087 246.217 908.201 247.176C907.337 248.117 906.451 249.057 905.608 250.016C904.743 250.975 903.9 251.934 903.035 252.912C902.192 253.889 901.348 254.848 900.526 255.844C899.029 257.56 897.553 259.33 896.098 261.119C896.077 261.156 896.034 261.211 895.992 261.248C895.381 262.023 894.748 262.779 894.137 263.554C893.567 264.273 892.998 264.974 892.429 265.693C888.633 270.507 884.964 275.413 881.422 280.411C880.03 282.366 878.68 284.321 877.331 286.295C877.036 286.737 876.719 287.18 876.424 287.622C875.876 288.434 875.328 289.264 874.779 290.075C874.063 291.164 873.346 292.252 872.629 293.34C871.996 294.299 871.385 295.258 870.752 296.236C867.863 300.754 865.038 305.328 862.318 309.939C861.685 310.99 861.073 312.042 860.441 313.111C860.42 313.167 860.378 313.24 860.335 313.296C859.703 314.421 859.028 315.546 858.417 316.671C846.84 336.94 836.888 357.726 828.39 377.719C827.926 378.825 827.462 379.95 826.998 381.057C820.883 395.646 815.591 409.773 811.036 422.905C810.614 424.104 810.192 425.303 809.792 426.465C809.244 428.051 808.716 429.618 808.21 431.186C807.493 433.289 806.798 435.354 806.144 437.401C805.807 438.49 805.448 439.578 805.09 440.647C804.309 443.082 803.55 445.461 802.854 447.785C792.691 480.504 788.178 502.673 788.178 502.673V259.754C788.178 257.467 789.465 255.291 791.721 254.129C791.763 254.111 791.805 254.074 791.869 254.055C792.206 253.889 792.564 253.687 792.881 253.484C793.218 253.299 793.555 253.078 793.872 252.875C793.977 252.801 794.104 252.728 794.209 252.635C794.504 252.451 794.778 252.23 795.053 252.027C795.284 251.842 795.516 251.658 795.748 251.473C795.917 251.326 796.086 251.197 796.233 251.049C796.55 250.754 796.866 250.477 797.161 250.164C797.33 249.998 797.477 249.832 797.625 249.666C797.836 249.426 798.068 249.186 798.258 248.928C798.637 248.486 798.996 248.024 799.312 247.545C799.438 247.379 799.544 247.194 799.649 247.028C799.797 246.807 799.923 246.604 800.05 246.383C800.303 245.959 800.514 245.516 800.725 245.092C800.83 244.889 800.915 244.686 800.999 244.483C801.104 244.244 801.21 243.985 801.294 243.746C801.378 243.524 801.463 243.284 801.547 243.045C801.61 242.805 801.695 242.584 801.737 242.325C801.906 241.809 802.011 241.274 802.116 240.739C802.159 240.555 802.18 240.352 802.201 240.168C802.243 239.928 802.264 239.67 802.285 239.411C802.327 238.913 802.348 238.415 802.348 237.917C802.348 229.784 796.423 222.849 788.178 220.23C785.88 219.511 783.434 219.124 780.883 219.124C778.31 219.124 775.864 219.511 773.587 220.23C765.321 222.849 759.396 229.784 759.396 237.917C759.396 238.415 759.417 238.913 759.459 239.411C759.48 239.67 759.522 239.928 759.543 240.168C759.586 240.352 759.607 240.555 759.649 240.739C759.733 241.274 759.839 241.809 760.007 242.325C760.071 242.584 760.134 242.805 760.218 243.045C760.281 243.284 760.366 243.524 760.45 243.746C760.534 243.985 760.64 244.244 760.745 244.483C760.83 244.686 760.935 244.889 761.019 245.092C761.23 245.516 761.441 245.959 761.694 246.383C761.821 246.604 761.947 246.807 762.095 247.028C762.2 247.194 762.306 247.379 762.432 247.545C762.77 248.024 763.107 248.486 763.486 248.928C763.676 249.186 763.908 249.426 764.119 249.666C764.288 249.832 764.435 249.998 764.583 250.164C764.899 250.477 765.194 250.754 765.511 251.049C765.658 251.197 765.827 251.326 765.996 251.473C766.228 251.658 766.46 251.842 766.692 252.027C766.966 252.23 767.24 252.451 767.535 252.635C767.64 252.728 767.767 252.801 767.872 252.875C768.189 253.078 768.526 253.299 768.863 253.484C769.201 253.687 769.538 253.889 769.876 254.055C769.939 254.074 769.981 254.111 770.023 254.129C772.279 255.291 773.587 257.467 773.587 259.754V502.673C773.587 502.673 769.053 480.504 758.911 447.785C758.194 445.461 757.435 443.082 756.655 440.647C756.317 439.578 755.98 438.49 755.6 437.401C754.947 435.354 754.251 433.289 753.534 431.186C753.028 429.618 752.501 428.051 751.952 426.465C751.552 425.303 751.151 424.104 750.729 422.905C746.175 409.773 740.861 395.646 734.767 381.057C734.282 379.95 733.839 378.825 733.354 377.719C724.878 357.726 714.904 336.94 703.328 316.671C702.716 315.546 702.062 314.421 701.409 313.296C701.367 313.24 701.345 313.167 701.303 313.111C700.692 312.042 700.059 310.99 699.427 309.939C696.706 305.328 693.881 300.754 690.992 296.236C690.36 295.258 689.748 294.299 689.115 293.34C688.42 292.252 687.703 291.164 686.965 290.075C686.416 289.264 685.868 288.434 685.32 287.622C685.025 287.18 684.73 286.737 684.413 286.295C683.064 284.321 681.693 282.366 680.323 280.411C676.78 275.413 673.111 270.507 669.316 265.693C668.746 264.974 668.177 264.273 667.608 263.554C667.017 262.779 666.385 262.023 665.752 261.248C665.71 261.211 665.689 261.156 665.647 261.119C664.192 259.33 662.737 257.56 661.24 255.844C660.396 254.848 659.553 253.889 658.709 252.912C657.845 251.934 657.001 250.975 656.137 250.016C655.293 249.057 654.429 248.117 653.543 247.176C652.679 246.217 651.793 245.295 650.928 244.354C650.907 244.317 650.886 244.299 650.844 244.28C648.841 242.141 646.795 240.057 644.729 238.01Z" fill="#F9FCFC"/>
</g>
<path d="M900.526 255.845C901.348 254.849 902.192 253.89 903.035 252.913C902.192 253.89 901.348 254.868 900.526 255.845Z" fill="#F9FCFC"/>
<path d="M853.187 193.027C853.651 193.58 854.094 194.097 854.537 194.632C854.094 194.097 853.63 193.58 853.187 193.027Z" fill="#F9FCFC"/>
<path d="M832.438 156.14C832.691 156.933 832.966 157.726 833.24 158.519C832.944 157.745 832.691 156.933 832.438 156.14Z" fill="#F9FCFC"/>
<path d="M794.209 252.636C794.504 252.433 794.778 252.23 795.053 252.028C794.778 252.23 794.504 252.452 794.209 252.636Z" fill="#F9FCFC"/>
<path d="M766.692 252.028C766.966 252.23 767.24 252.433 767.535 252.636C767.24 252.452 766.966 252.23 766.692 252.028Z" fill="#F9FCFC"/>
<path d="M755.6 437.402C755.98 438.49 756.317 439.579 756.655 440.648C756.317 439.579 755.959 438.49 755.6 437.402Z" fill="#F9FCFC"/>
<path d="M728.504 158.519C728.779 157.726 729.053 156.933 729.327 156.14C729.053 156.933 728.8 157.745 728.504 158.519Z" fill="#F9FCFC"/>
<path d="M658.709 252.913C659.553 253.89 660.396 254.849 661.24 255.845C660.396 254.868 659.553 253.89 658.709 252.913Z" fill="#F9FCFC"/>
<path d="M737.002 5.05171H824.763C828.39 5.05171 831.321 7.63379 831.321 10.8061V84.3769C831.321 87.5491 828.39 90.1128 824.763 90.1128H737.002C733.375 90.1128 730.423 87.5491 730.423 84.3769V10.8061C730.423 7.63379 733.375 5.05171 737.002 5.05171Z" fill="#F9FCFC"/>
<path d="M728.273 96.4941H833.493C834.969 96.4941 836.192 97.5454 836.192 98.8549V113.278C836.192 114.569 834.969 115.638 833.493 115.638H728.273C726.775 115.638 725.552 114.569 725.552 113.278V98.8549C725.552 97.5454 726.775 96.4941 728.273 96.4941Z" fill="#F9FCFC"/>
<mask id="mask1_0_1" style="mask-type:luminance" maskUnits="userSpaceOnUse" x="679" y="-6" width="204" height="13">
<path d="M679.648 -5H882.075V5.62341H679.648V-5Z" fill="white"/>
<path d="M679.648 -5.25H679.398V-5V5.62341V5.87341H679.648H882.075H882.325V5.62341V-5V-5.25H882.075H679.648Z" stroke="white" stroke-width="0.5"/>
</mask>
<g mask="url(#mask1_0_1)">
<path d="M882.054 83.5284C882.054 86.424 881.907 89.3196 881.569 92.1968C881.253 95.0924 880.768 97.9512 880.114 100.791C879.461 103.632 878.659 106.454 877.71 109.22C876.74 111.987 875.623 114.716 874.358 117.409C873.093 120.083 871.68 122.702 870.119 125.247C868.538 127.811 866.851 130.301 864.995 132.699C863.161 135.115 861.2 137.439 859.091 139.689C856.983 141.92 854.769 144.078 852.428 146.125C850.066 148.173 847.62 150.109 845.048 151.953C842.496 153.798 839.84 155.513 837.077 157.136C834.315 158.741 831.489 160.235 828.559 161.599C825.628 162.964 822.654 164.2 819.576 165.307C816.518 166.413 813.398 167.391 810.235 168.239C807.051 169.087 803.845 169.788 800.598 170.342C797.351 170.913 794.061 171.338 790.772 171.633C787.462 171.909 784.172 172.057 780.84 172.057C777.53 172.057 774.219 171.909 770.93 171.633C767.64 171.338 764.351 170.913 761.104 170.342C757.856 169.788 754.651 169.087 751.467 168.239C748.304 167.391 745.184 166.413 742.126 165.307C739.048 164.2 736.053 162.964 733.143 161.599C730.212 160.235 727.366 158.741 724.625 157.136C721.862 155.513 719.205 153.798 716.633 151.953C714.082 150.109 711.636 148.173 709.274 146.125C706.933 144.078 704.719 141.92 702.611 139.689C700.502 137.439 698.541 135.115 696.685 132.699C694.851 130.301 693.143 127.811 691.583 125.247C690.022 122.702 688.609 120.083 687.344 117.409C686.079 114.716 684.961 111.987 683.992 109.22C683.043 106.454 682.22 103.632 681.588 100.791C680.934 97.9512 680.449 95.0924 680.133 92.1968C679.795 89.3196 679.648 86.424 679.648 83.5284C679.648 80.6328 679.795 77.7372 680.133 74.8416C680.449 71.9644 680.934 69.0872 681.588 66.2469C682.22 63.4066 683.043 60.6032 683.992 57.8183C684.961 55.0518 686.079 52.3221 687.344 49.6478C688.609 46.9735 690.022 44.3546 691.583 41.7909C693.143 39.2273 694.851 36.7559 696.685 34.3398C698.541 31.9237 700.502 29.5999 702.611 27.3682C704.719 25.1181 706.933 22.9787 709.274 20.9314C711.636 18.8658 714.082 16.9292 716.633 15.0849C719.205 13.259 721.862 11.5253 724.625 9.92072C727.366 8.2977 730.212 6.82223 733.143 5.45742C736.053 4.07416 739.048 2.83845 742.126 1.73185C745.184 0.625242 748.304 -0.352257 751.467 -1.20066C754.651 -2.03061 757.856 -2.73146 761.104 -3.30321C764.351 -3.87495 767.64 -4.29915 770.93 -4.5758C774.219 -4.8709 777.53 -5 780.84 -5C784.172 -5 787.462 -4.8709 790.772 -4.5758C794.061 -4.29915 797.351 -3.87495 800.598 -3.30321C803.845 -2.73146 807.051 -2.03061 810.235 -1.20066C813.398 -0.352257 816.518 0.625242 819.576 1.73185C822.654 2.83845 825.628 4.07416 828.559 5.45742C831.489 6.82223 834.315 8.2977 837.077 9.92072C839.84 11.5253 842.496 13.259 845.048 15.0849C847.62 16.9292 850.066 18.8658 852.428 20.9314C854.769 22.9787 856.983 25.1181 859.091 27.3682C861.2 29.5999 863.161 31.9237 864.995 34.3398C866.851 36.7559 868.538 39.2273 870.119 41.7909C871.68 44.3546 873.093 46.9735 874.358 49.6478C875.623 52.3221 876.74 55.0518 877.71 57.8183C878.659 60.6032 879.461 63.4066 880.114 66.2469C880.768 69.0872 881.253 71.9644 881.569 74.8416C881.907 77.7372 882.054 80.6328 882.054 83.5284Z" fill="#F9FCFC"/>
</g>
</g>
<defs>
<filter id="filter0_d_0_1" x="55.7828" y="47.7908" width="968.434" height="982.919" filterUnits="userSpaceOnUse" color-interpolation-filters="sRGB">
<feFlood flood-opacity="0" result="BackgroundImageFix"/>
<feColorMatrix in="SourceAlpha" type="matrix" values="0 0 0 0 0 0 0 0 0 0 0 0 0 0 0 0 0 0 127 0" result="hardAlpha"/>
<feOffset dy="4"/>
<feGaussianBlur stdDeviation="2"/>
<feComposite in2="hardAlpha" operator="out"/>
<feColorMatrix type="matrix" values="0 0 0 0 0 0 0 0 0 0 0 0 0 0 0 0 0 0 0.25 0"/>
<feBlend mode="normal" in2="BackgroundImageFix" result="effect1_dropShadow_0_1"/>
<feBlend mode="normal" in="SourceGraphic" in2="effect1_dropShadow_0_1" result="shape"/>
</filter>
<linearGradient id="paint0_linear_0_1" x1="599.783" y1="100.081" x2="599.783" y2="1075" gradientUnits="userSpaceOnUse">
<stop stop-color="#FA8D40"/>
<stop offset="0.0001" stop-color="#5479F7"/>
<stop offset="1" stop-color="#EE0979"/>
</linearGradient>
<linearGradient id="paint1_linear_0_1" x1="540" y1="47.7908" x2="540" y2="1022.71" gradientUnits="userSpaceOnUse">
<stop stop-color="#5479F7"/>
<stop offset="0.0001" stop-color="#FA8D40"/>
<stop offset="1" stop-color="#EE0979"/>
</linearGradient>
<linearGradient id="paint2_linear_0_1" x1="101.214" y1="26.8702" x2="724.736" y2="1009.47" gradientUnits="userSpaceOnUse">
<stop offset="0.112025" stop-color="#FA8D40"/>
<stop offset="0.820438" stop-color="#EE0979"/>
</linearGradient>
<clipPath id="clip0_0_1">
<rect width="1080" height="1080" fill="white"/>
</clipPath>
</defs>
</svg>
